# xmcd CD database file
# Copyright (C) 1996 Ti Kan
#
# Track frame offsets:
#  150
#  11752
#  23120
#  34692
#  46282
#  58515
#  69997
#  86545
#  95355
#  107350
#  117112
#  129885
#  141000
#  149837
#
# Disc length: 2443 seconds
#
# Revision: 2
# Processed by: cddbd v1.4b41PL1 Copyright (c) Steve Scherf et al.
# Submitted via: CDWizzard Release:4.12
#
DISCID=b309890e
DTITLE=Billy Boy Arnold - Goin' To Chicago
DYEAR=1900
DGENRE=
TTITLE0=Left My Happy Home
TTITLE1=Billy Boy's Jump
TTITLE2=Cryin' And Pleadin'
TTITLE3=Left My Happy Home (Alt.)
TTITLE4=Baby Jane
TTITLE5=Rock 'N' Roll
TTITLE6=Baby Left Me A Mule To Ride
TTITLE7=Hello Baby
TTITLE8=I Love Only You
TTITLE9=Evalina
TTITLE10=Come See Me Early In The Morning (Take 1)
TTITLE11=Why Is Everybody Down On Me
TTITLE12=Come See Me Early In The Morning (Take 2)
TTITLE13=Somebody Help Me With These Blues
EXTD=Testament TCD 5018\n\nBilly Boy Arnold:  vocal/harmonica\nMighty Joe
EXTD=Young:  guitar\nJody Williams:  guitar\nJerome Arnold:  bass\nClift
EXTD=on James:  drums\nMickey Boss:  tenor sax\nJohnny Turner:  guitar\nR
EXTD=obert Wilson:  bass\nMickey Conway:  drums\n\nSubmitted March 1997\n
EXTD=James R. McCoy (jmccoy@efn.org)
EXTT0=
EXTT1=
EXTT2=
EXTT3=
EXTT4=
EXTT5=
EXTT6=
EXTT7=
EXTT8=
EXTT9=
EXTT10=
EXTT11=
EXTT12=
EXTT13=
PLAYORDER=
